:version	1.10
:name	0101
:units
	mass	kg
	length	m
	angle	deg
:documentation
	fps:30
:root
	axis	XYZ
	order	TX	TY	TZ	RX	RY	RZ
	position	0.00	0.00	0.00
	orientation	0.00	0.00	0.00
:bonedata
	begin
		id	1
		name	Head
		direction	-18.5	116.2	-38.8
		length	123.9
		axis	0.0	0.0	0.0	XYZ
		dof	rx	ry	rz
		limits	(-inf	inf)
			(-inf	inf)
			(-inf	inf)
	end
	begin
		id	2
		name	Neck
		direction	-1.6	89.5	-15.3
		length	90.8
		axis	0.0	0.0	0.0	XYZ
		dof	rx	ry	rz
		limits	(-inf	inf)
			(-inf	inf)
			(-inf	inf)
	end
	begin
		id	3
		name	LeftCollar
		direction	-5.0	276.0	-47.2
		length	280.1
		axis	0.0	0.0	0.0	XYZ
		dof	rx	ry	rz
		limits	(-inf	inf)
			(-inf	inf)
			(-inf	inf)
	end
	begin
		id	4
		name	Torso
		direction	4.0	199.4	8.5
		length	199.7
		axis	0.0	0.0	0.0	XYZ
		dof	rx	ry	rz
		limits	(-inf	inf)
			(-inf	inf)
			(-inf	inf)
	end
	begin
		id	5
		name	LeftShoulder
		direction	170.7	-14.1	-44.7
		length	177.0
		axis	0.0	0.0	0.0	XYZ
		dof	rx	ry	rz
		limits	(-inf	inf)
			(-inf	inf)
			(-inf	inf)
	end
	begin
		id	6
		name	RightShoulder
		direction	-174.2	6.3	52.4
		length	182.0
		axis	0.0	0.0	0.0	XYZ
		dof	rx	ry	rz
		limits	(-inf	inf)
			(-inf	inf)
			(-inf	inf)
	end
	begin
		id	7
		name	LeftElbow
		direction	55.3	-271.7	26.6
		length	278.5
		axis	0.0	0.0	0.0	XYZ
		dof	rx	ry	rz
		limits	(-inf	inf)
			(-inf	inf)
			(-inf	inf)
	end
	begin
		id	8
		name	RightElbow
		direction	-37.0	-268.0	66.2
		length	278.5
		axis	0.0	0.0	0.0	XYZ
		dof	rx	ry	rz
		limits	(-inf	inf)
			(-inf	inf)
			(-inf	inf)
	end
	begin
		id	9
		name	LeftWrist
		direction	69.1	-260.5	-128.7
		length	298.7
		axis	0.0	0.0	0.0	XYZ
		dof	rx	ry	rz
		limits	(-inf	inf)
			(-inf	inf)
			(-inf	inf)
	end
	begin
		id	10
		name	RightWrist
		direction	-79.9	-277.4	-76.9
		length	298.7
		axis	0.0	0.0	0.0	XYZ
		dof	rx	ry	rz
		limits	(-inf	inf)
			(-inf	inf)
			(-inf	inf)
	end
	begin
		id	11
		name	LeftHand
		direction	13.8	-52.1	-25.7
		length	59.7
		axis	0.0	0.0	0.0	XYZ
		dof	rx	ry	rz
		limits	(-inf	inf)
			(-inf	inf)
			(-inf	inf)
	end
	begin
		id	12
		name	RightHand
		direction	-16.0	-55.5	-15.4
		length	59.7
		axis	0.0	0.0	0.0	XYZ
		dof	rx	ry	rz
		limits	(-inf	inf)
			(-inf	inf)
			(-inf	inf)
	end
	begin
		id	13
		name	LeftHip
		direction	117.3	-70.1	12.8
		length	137.3
		axis	0.0	0.0	0.0	XYZ
		dof	rx	ry	rz
		limits	(-inf	inf)
			(-inf	inf)
			(-inf	inf)
	end
	begin
		id	14
		name	RightHip
		direction	-108.5	-76.7	41.0
		length	139.0
		axis	0.0	0.0	0.0	XYZ
		dof	rx	ry	rz
		limits	(-inf	inf)
			(-inf	inf)
			(-inf	inf)
	end
	begin
		id	15
		name	LeftKnee
		direction	-0.2	-428.3	-95.5
		length	438.9
		axis	0.0	0.0	0.0	XYZ
		dof	rx	ry	rz
		limits	(-inf	inf)
			(-inf	inf)
			(-inf	inf)
	end
	begin
		id	16
		name	RightKnee
		direction	16.9	-434.8	-56.9
		length	438.9
		axis	0.0	0.0	0.0	XYZ
		dof	rx	ry	rz
		limits	(-inf	inf)
			(-inf	inf)
			(-inf	inf)
	end
	begin
		id	17
		name	LeftAnkle
		direction	51.1	-389.3	75.6
		length	399.8
		axis	0.0	0.0	0.0	XYZ
		dof	rx	ry	rz
		limits	(-inf	inf)
			(-inf	inf)
			(-inf	inf)
	end
	begin
		id	18
		name	RightAnkle
		direction	-36.9	-388.8	85.6
		length	399.8
		axis	0.0	0.0	0.0	XYZ
		dof	rx	ry	rz
		limits	(-inf	inf)
			(-inf	inf)
			(-inf	inf)
	end
:hierarchy
	begin
		Neck	Head
		LeftCollar	Neck	LeftShoulder	RightShoulder
		Torso	LeftCollar
		root	Torso	LeftHip	RightHip
		LeftShoulder	LeftElbow
		RightShoulder	RightElbow
		LeftElbow	LeftWrist
		RightElbow	RightWrist
		LeftWrist	LeftHand
		RightWrist	RightHand
		LeftHip	LeftKnee
		RightHip	RightKnee
		LeftKnee	LeftAnkle
		RightKnee	RightAnkle
	end

:FULLY-SPECIFIED
:DEGREES
277
Head	-9.47	11.92	0.33
Neck	-9.47	11.92	0.33
LeftCollar	-9.47	11.92	0.33
Torso	-9.47	11.92	0.33
root	137.62	47.20	2741.53	-1.69	6.84	2.36
LeftShoulder	29.05	-3.71	-2.09
RightShoulder	21.27	38.30	2.98
LeftElbow	31.42	21.67	12.69
RightElbow	17.36	17.47	-5.22
LeftWrist	31.27	21.02	12.26
RightWrist	17.42	18.09	-5.02
LeftHand	31.27	21.02	12.26
RightHand	17.42	18.09	-5.02
LeftHip	5.64	38.04	1.23
RightHip	1.30	-20.85	2.54
LeftKnee	-8.88	38.04	1.23
RightKnee	-9.30	-20.85	2.54
LeftAnkle	-8.88	38.04	1.23
RightAnkle	-9.30	-20.85	2.54
278
Head	-9.59	11.98	-0.01
Neck	-9.59	11.98	-0.01
LeftCollar	-9.59	11.98	-0.01
Torso	-9.59	11.98	-0.01
root	137.97	45.63	2741.93	-1.96	6.87	2.36
LeftShoulder	29.55	-3.89	-2.22
RightShoulder	21.71	37.71	3.67
LeftElbow	31.56	19.93	11.80
RightElbow	17.81	16.93	-4.68
LeftWrist	31.39	19.17	11.31
RightWrist	17.87	17.45	-4.50
LeftHand	31.39	19.17	11.31
RightHand	17.87	17.45	-4.50
LeftHip	5.68	37.29	1.30
RightHip	1.29	-21.06	2.36
LeftKnee	-8.77	37.29	1.30
RightKnee	-9.16	-21.06	2.36
LeftAnkle	-8.77	37.29	1.30
RightAnkle	-9.16	-21.06	2.36
279
Head	-9.65	12.11	-0.23
Neck	-9.65	12.11	-0.23
LeftCollar	-9.65	12.11	-0.23
Torso	-9.65	12.11	-0.23
root	138.31	43.35	2742.39	-2.23	6.75	2.38
LeftShoulder	29.84	-3.63	-2.73
RightShoulder	22.15	37.42	4.17
LeftElbow	31.67	18.93	10.67
RightElbow	18.20	16.57	-4.36
LeftWrist	31.50	18.13	10.15
RightWrist	18.24	16.99	-4.22
LeftHand	31.50	18.13	10.15
RightHand	18.24	16.99	-4.22
LeftHip	5.40	36.81	1.34
RightHip	1.25	-21.45	2.22
LeftKnee	-8.24	36.81	1.34
RightKnee	-9.01	-21.45	2.22
LeftAnkle	-8.24	36.81	1.34
RightAnkle	-9.01	-21.45	2.22
280
Head	-9.65	12.11	-0.23
Neck	-9.65	12.11	-0.23
LeftCollar	-9.65	12.11	-0.23
Torso	-9.65	12.11	-0.23
root	138.31	43.35	2742.39	-2.23	6.75	2.38
LeftShoulder	29.84	-3.63	-2.73
RightShoulder	22.15	37.42	4.17
LeftElbow	31.67	18.93	10.67
RightElbow	18.20	16.57	-4.36
LeftWrist	31.50	18.13	10.15
RightWrist	18.24	16.99	-4.22
LeftHand	31.50	18.13	10.15
RightHand	18.24	16.99	-4.22
LeftHip	5.40	36.81	1.34
RightHip	1.25	-21.45	2.22
LeftKnee	-8.24	36.81	1.34
RightKnee	-9.01	-21.45	2.22
LeftAnkle	-8.24	36.81	1.34
RightAnkle	-9.01	-21.45	2.22
281
Head	-9.74	12.20	-0.36
Neck	-9.74	12.20	-0.36
LeftCollar	-9.74	12.20	-0.36
Torso	-9.74	12.20	-0.36
root	138.71	41.12	2742.89	-2.93	6.91	2.17
LeftShoulder	29.21	-3.00	-3.90
RightShoulder	22.51	37.35	4.55
LeftElbow	30.84	18.08	8.27
RightElbow	18.55	16.89	-4.00
LeftWrist	30.67	17.15	7.70
RightWrist	18.59	17.29	-3.86
LeftHand	30.67	17.15	7.70
RightHand	18.59	17.29	-3.86
LeftHip	3.75	37.38	1.12
RightHip	0.21	-21.53	2.27
LeftKnee	-6.62	37.38	1.12
RightKnee	-7.80	-21.53	2.27
LeftAnkle	-6.62	37.38	1.12
RightAnkle	-7.80	-21.53	2.27
282
Head	-9.86	11.99	-0.43
Neck	-9.86	11.99	-0.43
LeftCollar	-9.86	11.99	-0.43
Torso	-9.86	11.99	-0.43
root	139.62	42.08	2744.09	-1.82	7.13	2.12
LeftShoulder	28.19	-2.38	-6.26
RightShoulder	23.70	37.29	4.93
LeftElbow	29.61	17.20	4.56
RightElbow	19.95	20.43	-2.74
LeftWrist	29.44	16.24	3.99
RightWrist	20.05	21.11	-2.48
LeftHand	29.44	16.24	3.99
RightHand	20.05	21.11	-2.48
LeftHip	5.94	37.70	1.62
RightHip	1.33	-21.74	2.21
LeftKnee	-7.43	37.70	1.62
RightKnee	-8.32	-21.74	2.21
LeftAnkle	-7.43	37.70	1.62
RightAnkle	-8.32	-21.74	2.21
283
Head	-9.86	11.99	-0.43
Neck	-9.86	11.99	-0.43
LeftCollar	-9.86	11.99	-0.43
Torso	-9.86	11.99	-0.43
root	139.62	42.08	2744.09	-1.82	7.13	2.12
LeftShoulder	28.19	-2.38	-6.26
RightShoulder	23.70	37.29	4.93
LeftElbow	29.61	17.20	4.56
RightElbow	19.95	20.43	-2.74
LeftWrist	29.44	16.24	3.99
RightWrist	20.05	21.11	-2.48
LeftHand	29.44	16.24	3.99
RightHand	20.05	21.11	-2.48
LeftHip	5.94	37.70	1.62
RightHip	1.33	-21.74	2.21
LeftKnee	-7.43	37.70	1.62
RightKnee	-8.32	-21.74	2.21
LeftAnkle	-7.43	37.70	1.62
RightAnkle	-8.32	-21.74	2.21
284
Head	-9.94	12.11	-0.23
Neck	-9.94	12.11	-0.23
LeftCollar	-9.94	12.11	-0.23
Torso	-9.94	12.11	-0.23
root	140.69	46.05	2745.34	-2.11	7.69	2.10
LeftShoulder	30.69	-2.91	-7.40
RightShoulder	24.88	35.90	5.78
LeftElbow	32.39	17.90	5.36
RightElbow	21.20	19.50	-2.06
LeftWrist	32.27	17.30	4.96
RightWrist	21.28	20.08	-1.82
LeftHand	32.27	17.30	4.96
RightHand	21.28	20.08	-1.82
LeftHip	5.87	38.20	0.86
RightHip	0.46	-21.91	2.13
LeftKnee	-8.23	38.20	0.86
RightKnee	-7.98	-21.91	2.13
LeftAnkle	-8.23	38.20	0.86
RightAnkle	-7.98	-21.91	2.13
285
Head	-10.00	12.22	-0.08
Neck	-10.00	12.22	-0.08
LeftCollar	-10.00	12.22	-0.08
Torso	-10.00	12.22	-0.08
root	141.26	47.52	2745.57	-1.98	7.28	1.80
LeftShoulder	31.76	-3.02	-7.77
RightShoulder	25.29	35.41	5.80
LeftElbow	33.58	18.16	5.79
RightElbow	21.61	19.03	-2.15
LeftWrist	33.48	17.68	5.46
RightWrist	21.69	19.56	-1.93
LeftHand	33.48	17.68	5.46
RightHand	21.69	19.56	-1.93
LeftHip	6.51	36.96	0.68
RightHip	0.83	-22.67	2.21
LeftKnee	-9.48	36.96	0.68
RightKnee	-9.29	-22.67	2.21
LeftAnkle	-9.48	36.96	0.68
RightAnkle	-9.29	-22.67	2.21
286
Head	-10.00	12.22	-0.08
Neck	-10.00	12.22	-0.08
LeftCollar	-10.00	12.22	-0.08
Torso	-10.00	12.22	-0.08
root	141.26	47.52	2745.57	-1.98	7.28	1.80
LeftShoulder	31.76	-3.02	-7.77
RightShoulder	25.29	35.41	5.80
LeftElbow	33.58	18.16	5.79
RightElbow	21.61	19.03	-2.15
LeftWrist	33.48	17.68	5.46
RightWrist	21.69	19.56	-1.93
LeftHand	33.48	17.68	5.46
RightHand	21.69	19.56	-1.93
LeftHip	6.51	36.96	0.68
RightHip	0.83	-22.67	2.21
LeftKnee	-9.48	36.96	0.68
RightKnee	-9.29	-22.67	2.21
LeftAnkle	-9.48	36.96	0.68
RightAnkle	-9.29	-22.67	2.21
287
Head	-10.07	12.44	0.21
Neck	-10.07	12.44	0.21
LeftCollar	-10.07	12.44	0.21
Torso	-10.07	12.44	0.21
root	141.90	48.65	2745.78	-2.76	7.39	1.31
LeftShoulder	32.53	-3.02	-8.05
RightShoulder	25.65	35.46	5.68
LeftElbow	34.44	18.29	6.03
RightElbow	21.99	19.69	-2.13
LeftWrist	34.36	17.90	5.75
RightWrist	22.07	20.24	-1.89
LeftHand	34.36	17.90	5.75
RightHand	22.07	20.24	-1.89
LeftHip	4.75	37.43	0.30
RightHip	-0.32	-23.16	2.05
LeftKnee	-7.82	37.43	0.30
RightKnee	-8.75	-23.16	2.05
LeftAnkle	-7.82	37.43	0.30
RightAnkle	-8.75	-23.16	2.05
288
Head	-10.21	12.56	0.30
Neck	-10.21	12.56	0.30
LeftCollar	-10.21	12.56	0.30
Torso	-10.21	12.56	0.30
root	143.02	50.03	2745.96	-3.23	7.67	0.63
LeftShoulder	33.39	-3.07	-8.03
RightShoulder	26.43	35.37	5.51
LeftElbow	35.39	18.40	6.63
RightElbow	22.82	20.64	-2.10
LeftWrist	35.32	18.13	6.43
RightWrist	22.91	21.22	-1.84
LeftHand	35.32	18.13	6.43
RightHand	22.91	21.22	-1.84
LeftHip	3.90	38.34	0.15
RightHip	-0.50	-23.91	2.40
LeftKnee	-6.67	38.34	0.15
RightKnee	-7.72	-23.91	2.40
LeftAnkle	-6.67	38.34	0.15
RightAnkle	-7.72	-23.91	2.40
289
Head	-10.21	12.56	0.30
Neck	-10.21	12.56	0.30
LeftCollar	-10.21	12.56	0.30
Torso	-10.21	12.56	0.30
root	143.02	50.03	2745.96	-3.23	7.67	0.63
LeftShoulder	33.39	-3.07	-8.03
RightShoulder	26.43	35.37	5.51
LeftElbow	35.39	18.40	6.63
RightElbow	22.82	20.64	-2.10
LeftWrist	35.32	18.13	6.43
RightWrist	22.91	21.22	-1.84
LeftHand	35.32	18.13	6.43
RightHand	22.91	21.22	-1.84
LeftHip	3.90	38.34	0.15
RightHip	-0.50	-23.91	2.40
LeftKnee	-6.67	38.34	0.15
RightKnee	-7.72	-23.91	2.40
LeftAnkle	-6.67	38.34	0.15
RightAnkle	-7.72	-23.91	2.40
290
Head	-9.99	12.70	0.31
Neck	-9.99	12.70	0.31
LeftCollar	-9.99	12.70	0.31
Torso	-9.99	12.70	0.31
root	145.43	50.43	2745.66	-3.58	7.41	0.60
LeftShoulder	34.51	-3.32	-7.64
RightShoulder	27.78	35.17	5.45
LeftElbow	36.39	17.58	7.19
RightElbow	24.19	21.57	-2.05
LeftWrist	36.34	17.37	7.03
RightWrist	24.30	22.16	-1.77
LeftHand	36.34	17.37	7.03
RightHand	24.30	22.16	-1.77
LeftHip	3.63	39.13	-0.09
RightHip	-0.11	-25.37	2.32
LeftKnee	-6.39	39.13	-0.09
RightKnee	-7.45	-25.37	2.32
LeftAnkle	-6.39	39.13	-0.09
RightAnkle	-7.45	-25.37	2.32
291
Head	-9.77	12.67	0.30
Neck	-9.77	12.67	0.30
LeftCollar	-9.77	12.67	0.30
Torso	-9.77	12.67	0.30
root	146.48	50.45	2744.93	-3.13	7.52	1.05
LeftShoulder	35.35	-3.61	-7.29
RightShoulder	28.46	35.17	5.51
LeftElbow	37.24	17.40	8.07
RightElbow	24.79	21.71	-2.14
LeftWrist	37.20	17.27	7.97
RightWrist	24.89	22.27	-1.86
LeftHand	37.20	17.27	7.97
RightHand	24.89	22.27	-1.86
LeftHip	4.90	39.33	-0.09
RightHip	0.40	-25.52	1.96
LeftKnee	-7.92	39.33	-0.09
RightKnee	-8.05	-25.52	1.96
LeftAnkle	-7.92	39.33	-0.09
RightAnkle	-8.05	-25.52	1.96
292
Head	-9.77	12.67	0.30
Neck	-9.77	12.67	0.30
LeftCollar	-9.77	12.67	0.30
Torso	-9.77	12.67	0.30
root	146.48	50.45	2744.93	-3.13	7.52	1.05
LeftShoulder	35.35	-3.61	-7.29
RightShoulder	28.46	35.17	5.51
LeftElbow	37.24	17.40	8.07
RightElbow	24.79	21.71	-2.14
LeftWrist	37.20	17.27	7.97
RightWrist	24.89	22.27	-1.86
LeftHand	37.20	17.27	7.97
RightHand	24.89	22.27	-1.86
LeftHip	4.90	39.33	-0.09
RightHip	0.40	-25.52	1.96
LeftKnee	-7.92	39.33	-0.09
RightKnee	-8.05	-25.52	1.96
LeftAnkle	-7.92	39.33	-0.09
RightAnkle	-8.05	-25.52	1.96
293
Head	-9.55	12.56	0.30
Neck	-9.55	12.56	0.30
LeftCollar	-9.55	12.56	0.30
Torso	-9.55	12.56	0.30
root	147.43	50.47	2744.22	-3.05	6.62	0.67
LeftShoulder	36.20	-3.83	-7.07
RightShoulder	29.09	35.23	5.59
LeftElbow	38.17	17.53	9.06
RightElbow	25.33	21.83	-2.22
LeftWrist	38.16	17.50	9.03
RightWrist	25.42	22.34	-1.96
LeftHand	38.16	17.50	9.03
RightHand	25.42	22.34	-1.96
LeftHip	5.83	38.03	0.08
RightHip	1.72	-26.63	2.20
LeftKnee	-9.18	38.03	0.08
RightKnee	-9.95	-26.63	2.20
LeftAnkle	-9.18	38.03	0.08
RightAnkle	-9.95	-26.63	2.20
294
Head	-9.41	12.38	0.27
Neck	-9.41	12.38	0.27
LeftCollar	-9.41	12.38	0.27
Torso	-9.41	12.38	0.27
root	148.80	50.82	2742.76	-3.67	6.70	0.80
LeftShoulder	37.19	-4.03	-7.11
RightShoulder	29.90	35.25	5.74
LeftElbow	39.28	17.74	9.93
RightElbow	25.99	21.75	-2.37
LeftWrist	39.30	17.83	10.01
RightWrist	26.07	22.17	-2.15
LeftHand	39.30	17.83	10.01
RightHand	26.07	22.17	-2.15
LeftHip	5.81	37.55	-0.12
RightHip	2.56	-26.48	1.98
LeftKnee	-9.51	37.55	-0.12
RightKnee	-10.91	-26.48	1.98
LeftAnkle	-9.51	37.55	-0.12
RightAnkle	-10.91	-26.48	1.98
295
Head	-9.27	12.31	0.24
Neck	-9.27	12.31	0.24
LeftCollar	-9.27	12.31	0.24
Torso	-9.27	12.31	0.24
root	149.28	50.94	2741.96	-3.90	6.70	0.85
LeftShoulder	37.61	-4.12	-7.30
RightShoulder	30.32	35.34	5.99
LeftElbow	39.76	17.84	10.17
RightElbow	26.23	21.29	-2.55
LeftWrist	39.79	17.98	10.29
RightWrist	26.29	21.60	-2.39
LeftHand	39.79	17.98	10.29
RightHand	26.29	21.60	-2.39
LeftHip	5.67	37.32	-0.22
RightHip	2.08	-26.28	2.22
LeftKnee	-9.59	37.32	-0.22
RightKnee	-11.89	-26.28	2.22
LeftAnkle	-9.59	37.32	-0.22
RightAnkle	-11.89	-26.28	2.22
296
Head	-9.16	12.19	0.24
Neck	-9.16	12.19	0.24
LeftCollar	-9.16	12.19	0.24
Torso	-9.16	12.19	0.24
root	149.58	51.03	2741.23	-4.80	7.28	0.59
LeftShoulder	38.06	-4.19	-7.41
RightShoulder	30.63	35.44	6.30
LeftElbow	40.21	17.76	10.32
RightElbow	26.29	20.40	-2.88
LeftWrist	40.26	17.93	10.48
RightWrist	26.31	20.52	-2.82
LeftHand	40.26	17.93	10.48
RightHand	26.31	20.52	-2.82
LeftHip	4.81	37.91	-0.26
RightHip	1.02	-26.47	2.09
LeftKnee	-8.79	37.91	-0.26
RightKnee	-9.02	-26.47	2.09
LeftAnkle	-8.79	37.91	-0.26
RightAnkle	-9.02	-26.47	2.09
